<?xml version="1.0" encoding="UTF-8"?>
<svg version="1.1" xmlns="http://www.w3.org/2000/svg" width="80" height="80">
<path d="M0 0 C1 2 2 4 3 6 C3.78375 5.195625 4.5675 4.39125 5.375 3.5625 C8 1 8 1 10 0 C10 1.65 10 3.3 10 5 C11.98 3.68 13.96 2.36 16 1 C16.99 3.31 17.98 5.62 19 8 C20.65 7.34 22.3 6.68 24 6 C24 8.64 24 11.28 24 14 C27.465 13.505 27.465 13.505 31 13 C30.690625 13.598125 30.38125 14.19625 30.0625 14.8125 C28.89790296 17.08956772 28.89790296 17.08956772 28 20 C29.32 21.32 30.64 22.64 32 24 C30.02 24.99 30.02 24.99 28 26 C28.66 27.32 29.32 28.64 30 30 C30.99 28.35 31.98 26.7 33 25 C34.231394 28.69418201 33.64432764 31.2056261 33 35 C33.99 34.34 34.98 33.68 36 33 C36.495 35.97 36.495 35.97 37 39 C38.98 38.34 40.96 37.68 43 37 C42.01 38.65 41.02 40.3 40 42 C41.32 42.66 42.64 43.32 44 44 C42.625 45.5 42.625 45.5 41 47 C40.34 47 39.68 47 39 47 C38.8453125 48.5159375 38.8453125 48.5159375 38.6875 50.0625 C37.17241344 58.73981395 33.4247815 63.49155617 26.5625 68.6875 C23.49559533 70.81582608 20.58078249 71.9038421 17 73 C15.63864365 73.71565374 14.28480243 74.44572675 12.9375 75.1875 C10.39779486 76.47903886 9.2683289 77.00638878 6.375 76.9375 C2.62489291 75.45719457 -0.83693933 73.88110657 -4.0625 71.4375 C-5.96819926 69.87866484 -5.96819926 69.87866484 -8.4375 69.125 C-11.70721444 67.68951561 -13.51862761 65.5434067 -16 63 C-17.2684375 62.38125 -17.2684375 62.38125 -18.5625 61.75 C-22.27478673 59.0847685 -23.66613658 55.29966029 -25 51 C-25 49.68 -25 48.36 -25 47 C-24.34 47 -23.68 47 -23 47 C-23.09539063 46.02417969 -23.19078125 45.04835937 -23.2890625 44.04296875 C-23.39992188 42.77066406 -23.51078125 41.49835937 -23.625 40.1875 C-23.74101562 38.92292969 -23.85703125 37.65835938 -23.9765625 36.35546875 C-24 33 -24 33 -22 30 C-21.34 30 -20.68 30 -20 30 C-19.67 30.66 -19.34 31.32 -19 32 C-18.97421875 31.39671875 -18.9484375 30.7934375 -18.921875 30.171875 C-18.45283019 23.5626072 -18.45283019 23.5626072 -15.9375 20.4375 C-15.298125 19.963125 -14.65875 19.48875 -14 19 C-14.495 18.38125 -14.99 17.7625 -15.5 17.125 C-17 15 -17 15 -17 13 C-14.69 13.33 -12.38 13.66 -10 14 C-10 11.69 -10 9.38 -10 7 C-8.35 7.66 -6.7 8.32 -5 9 C-3.35 6.03 -1.7 3.06 0 0 Z M-16 25 C-15.01 26.485 -15.01 26.485 -14 28 C-14 27.01 -14 26.02 -14 25 C-14.66 25 -15.32 25 -16 25 Z M25 32 C25.66 33.65 26.32 35.3 27 37 C27.66 37 28.32 37 29 37 C29.33 37.66 29.66 38.32 30 39 C30.33 38.01 30.66 37.02 31 36 C29.02 34.68 27.04 33.36 25 32 Z " fill="#2D2330" transform="translate(33,2)"/>
<path d="M0 0 C0.66 0.33 1.32 0.66 2 1 C2 2.32 2 3.64 2 5 C4.31 3.35 6.62 1.7 9 0 C9.66 1.32 10.32 2.64 11 4 C11.61875 3.34 12.2375 2.68 12.875 2 C15 0 15 0 17 0 C18.35439668 2.70879335 18.06501451 5.00933268 18 8 C19.65 7.34 21.3 6.68 23 6 C23 7.98 23 9.96 23 12 C24.98 11.67 26.96 11.34 29 11 C28.01 12.65 27.02 14.3 26 16 C27.32 16.66 28.64 17.32 30 18 C30 18.66 30 19.32 30 20 C28.68 20.33 27.36 20.66 26 21 C26.66 22.98 27.32 24.96 28 27 C26.02 25.68 24.04 24.36 22 23 C22 24.98 22 26.96 22 29 C19.84622436 26.37801226 18.59927826 24.35595828 18 21 C17.46503906 21.16242187 16.93007813 21.32484375 16.37890625 21.4921875 C13.51665046 22.10317806 10.86328265 22.13225101 7.9375 22.125 C6.89464844 22.12757812 5.85179687 22.13015625 4.77734375 22.1328125 C2 22 2 22 -1 21 C-1.33 21.99 -1.66 22.98 -2 24 C-2.66 24 -3.32 24 -4 24 C-4.33 25.32 -4.66 26.64 -5 28 C-5.33 27.01 -5.66 26.02 -6 25 C-6.33 24.67 -6.66 24.34 -7 24 C-8.5833253 25.2488427 -8.5833253 25.2488427 -10 27 C-10 28.32 -10 29.64 -10 31 C-9.34 31 -8.68 31 -8 31 C-8 31.66 -8 32.32 -8 33 C-1.1834265 34.7879537 4.96517526 35.23668569 12 35 C12 35.99 12 36.98 12 38 C14.76276177 37.47731534 17.3260876 36.89130413 20 36 C19.67 38.31 19.34 40.62 19 43 C16.03 42.34 13.06 41.68 10 41 C9.67 42.98 9.34 44.96 9 47 C8.34 47 7.68 47 7 47 C7 47.66 7 48.32 7 49 C8.485 49.495 8.485 49.495 10 50 C9.01 50 8.02 50 7 50 C7 50.66 7 51.32 7 52 C7.99 52 8.98 52 10 52 C9.67 52.99 9.34 53.98 9 55 C5.84669446 54.39305845 3.81111133 53.3583335 1.25 51.4375 C0.63640625 50.98246094 0.0228125 50.52742188 -0.609375 50.05859375 C-1.06828125 49.70925781 -1.5271875 49.35992187 -2 49 C-3.00821159 51.68856424 -3.22736824 53.41703215 -2.17578125 56.11328125 C-1.16604698 58.10794931 -0.11893353 60.0646772 1 62 C0.01 62.495 0.01 62.495 -1 63 C-3.10937632 61.42323368 -5.21239258 59.83902921 -7.3125 58.25 C-8.20485352 57.58484375 -8.20485352 57.58484375 -9.11523438 56.90625 C-12.24904673 54.5252529 -14.83262674 52.34886555 -17 49 C-16.34 47.68 -15.68 46.36 -15 45 C-15.33 45 -15.66 45 -16 45 C-15.95875 43.9275 -15.9175 42.855 -15.875 41.75 C-15.70232946 38.19616577 -15.70232946 38.19616577 -17.03125 36.1875 C-18.41017609 33.07379591 -17.96099316 30.6099316 -17.625 27.25 C-17.51414062 26.07953125 -17.40328125 24.9090625 -17.2890625 23.703125 C-17.14597656 22.36507813 -17.14597656 22.36507813 -17 21 C-16.01 21.33 -15.02 21.66 -14 22 C-13.67 24.31 -13.34 26.62 -13 29 C-12.690625 28.05125 -12.38125 27.1025 -12.0625 26.125 C-11 23 -11 23 -10 21 C-11.32 20.67 -12.64 20.34 -14 20 C-14 19.34 -14 18.68 -14 18 C-12.68 17.34 -11.36 16.68 -10 16 C-10.99 14.35 -11.98 12.7 -13 11 C-10.03 11.495 -10.03 11.495 -7 12 C-7.33 9.69 -7.66 7.38 -8 5 C-6.02 5.99 -4.04 6.98 -2 8 C-1.855625 7.236875 -1.71125 6.47375 -1.5625 5.6875 C-1 3 -1 3 0 0 Z " fill="#EF9228" transform="translate(32,6)"/>
<path d="M0 0 C0.66 0 1.32 0 2 0 C2 4.29 2 8.58 2 13 C2.33 13 2.66 13 3 13 C2.88140625 13.81984375 2.7628125 14.6396875 2.640625 15.484375 C2.51171875 16.56203125 2.3828125 17.6396875 2.25 18.75 C2.11078125 19.81734375 1.9715625 20.8846875 1.828125 21.984375 C1.71460154 25.08673761 1.71460154 25.08673761 3.796875 27.265625 C6.08333969 29.11248806 6.08333969 29.11248806 9 31 C8.67 31.66 8.34 32.32 8 33 C8.58007812 33.17015625 9.16015625 33.3403125 9.7578125 33.515625 C14.78855489 35.07631736 18.66074352 36.94279657 23 40 C24.64619113 40.71573527 26.30728055 41.4025696 28 42 C28 41.01 28 40.02 28 39 C27.34 39 26.68 39 26 39 C25.67 37.68 25.34 36.36 25 35 C27.97 35 30.94 35 34 35 C33.67 35.99 33.34 36.98 33 38 C36.57996051 35.61335966 38.42184311 32.93750144 40 29 C40.25144312 25.24926796 40.25144312 25.24926796 40 22 C40.495 21.505 40.495 21.505 41 21 C41.68268138 19.67479497 42.3507041 18.34187818 43 17 C43 17.66 43 18.32 43 19 C43.66 19 44.32 19 45 19 C45.495 17.515 45.495 17.515 46 16 C47.5625 14.1875 47.5625 14.1875 50 13 C52.82784328 13.35685976 55.26140432 14.13277804 58 15 C58.144375 15.7425 58.28875 16.485 58.4375 17.25 C58.89370276 19.8953825 58.89370276 19.8953825 59.75 21.875 C60.15761943 25.33976518 58.70134141 28.07870447 57 31 C51.95794112 36.88240203 46.36891883 40.74420852 39 43 C37.63864365 43.71565374 36.28480243 44.44572675 34.9375 45.1875 C32.39779486 46.47903886 31.2683289 47.00638878 28.375 46.9375 C24.62489291 45.45719457 21.16306067 43.88110657 17.9375 41.4375 C16.03180074 39.87866484 16.03180074 39.87866484 13.5625 39.125 C10.29278556 37.68951561 8.48137239 35.5434067 6 33 C4.7315625 32.38125 4.7315625 32.38125 3.4375 31.75 C-0.27478673 29.0847685 -1.66613658 25.29966029 -3 21 C-3 19.68 -3 18.36 -3 17 C-2.34 17 -1.68 17 -1 17 C-1.09539063 16.02417969 -1.19078125 15.04835938 -1.2890625 14.04296875 C-1.39992188 12.77066406 -1.51078125 11.49835937 -1.625 10.1875 C-1.74101562 8.92292969 -1.85703125 7.65835938 -1.9765625 6.35546875 C-2 3 -2 3 0 0 Z " fill="#342530" transform="translate(11,32)"/>
<path d="M0 0 C0.99 0.33 1.98 0.66 3 1 C3.33 3.31 3.66 5.62 4 8 C4 7.34 4 6.68 4 6 C4.99 6 5.98 6 7 6 C7 7.32 7 8.64 7 10 C7.66 10 8.32 10 9 10 C9 10.66 9 11.32 9 12 C15.8165735 13.7879537 21.96517526 14.23668569 29 14 C29 14.99 29 15.98 29 17 C31.76276177 16.47731534 34.3260876 15.89130413 37 15 C36.67 17.31 36.34 19.62 36 22 C33.03 21.34 30.06 20.68 27 20 C26.67 21.98 26.34 23.96 26 26 C25.34 26 24.68 26 24 26 C24 26.66 24 27.32 24 28 C24.99 28.33 25.98 28.66 27 29 C26.01 29 25.02 29 24 29 C24 29.66 24 30.32 24 31 C24.99 31 25.98 31 27 31 C26.67 31.99 26.34 32.98 26 34 C22.84669446 33.39305845 20.81111133 32.3583335 18.25 30.4375 C17.63640625 29.98246094 17.0228125 29.52742188 16.390625 29.05859375 C15.93171875 28.70925781 15.4728125 28.35992187 15 28 C13.99178841 30.68856424 13.77263176 32.41703215 14.82421875 35.11328125 C15.83395302 37.10794931 16.88106647 39.0646772 18 41 C17.01 41.495 17.01 41.495 16 42 C13.89062368 40.42323368 11.78760742 38.83902921 9.6875 37.25 C8.79514648 36.58484375 8.79514648 36.58484375 7.88476562 35.90625 C4.75095327 33.5252529 2.16737326 31.34886555 0 28 C0.66 26.68 1.32 25.36 2 24 C1.67 24 1.34 24 1 24 C1.04125 22.9275 1.0825 21.855 1.125 20.75 C1.29767054 17.19616577 1.29767054 17.19616577 -0.03125 15.1875 C-1.41017609 12.07379591 -0.96099316 9.6099316 -0.625 6.25 C-0.51414062 5.07953125 -0.40328125 3.9090625 -0.2890625 2.703125 C-0.19367187 1.81109375 -0.09828125 0.9190625 0 0 Z " fill="#5A4E53" transform="translate(15,27)"/>
<path d="M0 0 C1 2 2 4 3 6 C3.78375 5.195625 4.5675 4.39125 5.375 3.5625 C8 1 8 1 10 0 C10 1.65 10 3.3 10 5 C11.98 3.68 13.96 2.36 16 1 C16.99 3.31 17.98 5.62 19 8 C20.65 7.34 22.3 6.68 24 6 C24 8.64 24 11.28 24 14 C27.465 13.505 27.465 13.505 31 13 C30.690625 13.598125 30.38125 14.19625 30.0625 14.8125 C28.89790296 17.08956772 28.89790296 17.08956772 28 20 C29.32 21.32 30.64 22.64 32 24 C30.02 24.99 30.02 24.99 28 26 C28.66 27.32 29.32 28.64 30 30 C30.99 28.35 31.98 26.7 33 25 C34.231394 28.69418201 33.64432764 31.2056261 33 35 C33.99 34.34 34.98 33.68 36 33 C36.495 35.97 36.495 35.97 37 39 C38.98 38.34 40.96 37.68 43 37 C42.01 38.65 41.02 40.3 40 42 C41.32 42.66 42.64 43.32 44 44 C42.625 45.5 42.625 45.5 41 47 C40.34 47 39.68 47 39 47 C39 48.65 39 50.3 39 52 C38.01 51.67 37.02 51.34 36 51 C36 49.02 36 47.04 36 45 C35.071875 45.020625 34.14375 45.04125 33.1875 45.0625 C30 45 30 45 27 44 C26.01 44.495 26.01 44.495 25 45 C25 42.03 25 39.06 25 36 C23.02 36.495 23.02 36.495 21 37 C20.505 31.555 20.505 31.555 20 26 C21.98 27.32 23.96 28.64 26 30 C25.67 28.35 25.34 26.7 25 25 C26.32 24.67 27.64 24.34 29 24 C29 23.34 29 22.68 29 22 C26.525 21.01 26.525 21.01 24 20 C24.66 19.67 25.32 19.34 26 19 C26 18.01 26 17.02 26 16 C24.68 16 23.36 16 22 16 C22 14.02 22 12.04 22 10 C20.35 10.66 18.7 11.32 17 12 C16.505 8.04 16.505 8.04 16 4 C13.69 5.65 11.38 7.3 9 9 C8.34 7.68 7.68 6.36 7 5 C6.38125 5.66 5.7625 6.32 5.125 7 C3 9 3 9 1 9 C0.67 7.68 0.34 6.36 0 5 C-0.99 7.31 -1.98 9.62 -3 12 C-5.475 11.01 -5.475 11.01 -8 10 C-8 11.98 -8 13.96 -8 16 C-9.65 16 -11.3 16 -13 16 C-12.67 16.99 -12.34 17.98 -12 19 C-11.34 19.33 -10.68 19.66 -10 20 C-11.65 20.66 -13.3 21.32 -15 22 C-15 22.66 -15 23.32 -15 24 C-13.35 24 -11.7 24 -10 24 C-11.32 27.3 -12.64 30.6 -14 34 C-14.66 33.01 -15.32 32.02 -16 31 C-15.125 27.8125 -15.125 27.8125 -14 25 C-15.32 24.34 -16.64 23.68 -18 23 C-16.68 21.68 -15.36 20.36 -14 19 C-14.495 18.38125 -14.99 17.7625 -15.5 17.125 C-17 15 -17 15 -17 13 C-14.69 13.33 -12.38 13.66 -10 14 C-10 11.69 -10 9.38 -10 7 C-7.525 7.99 -7.525 7.99 -5 9 C-3.35 6.03 -1.7 3.06 0 0 Z M25 32 C25.66 33.65 26.32 35.3 27 37 C27.66 37 28.32 37 29 37 C29.33 37.66 29.66 38.32 30 39 C30.33 38.01 30.66 37.02 31 36 C29.02 34.68 27.04 33.36 25 32 Z " fill="#1C1A2A" transform="translate(33,2)"/>
<path d="M0 0 C3.38780599 4.12428556 4 6.6751288 4 12 C4.66 12.33 5.32 12.66 6 13 C4.515 15.475 4.515 15.475 3 18 C8.05216018 22.71993196 12.82601539 26.84732701 19 30 C18.69964844 29.40832031 18.39929688 28.81664063 18.08984375 28.20703125 C14.94511149 21.67238422 14.94511149 21.67238422 15.25 17.9375 C15.4975 17.298125 15.745 16.65875 16 16 C18.47957769 17.44642032 20.80227609 18.83317045 23 20.6875 C25.58588604 22.38448771 26.94219194 22.31165252 30 22 C32.28726156 20.73498537 32.28726156 20.73498537 34.3125 19 C35.00988281 18.443125 35.70726562 17.88625 36.42578125 17.3125 C36.94527344 16.879375 37.46476562 16.44625 38 16 C39.14012514 19.82756298 39.57869206 21.80868606 37.80078125 25.46875 C36.29603694 27.77140958 34.83594233 29.95025172 33 32 C32.34 32 31.68 32 31 32 C31 31.34 31 30.68 31 30 C30.05125 30.020625 29.1025 30.04125 28.125 30.0625 C25 30 25 30 23 29 C23.33 30.32 23.66 31.64 24 33 C24.66 33 25.32 33 26 33 C26 33.99 26 34.98 26 36 C21.0160855 35.53638005 18.80237752 34.13696145 15 31 C13.01643517 30.28591666 11.01684563 29.61382258 9 29 C8.01 28.34 7.02 27.68 6 27 C6 26.34 6 25.68 6 25 C5.01 24.34 4.02 23.68 3 23 C0.75 21.375 0.75 21.375 -1 19 C-1.04324223 16.17844458 -0.55897262 13.79486311 0 11 C-0.33 11 -0.66 11 -1 11 C-1.14285714 3.57142857 -1.14285714 3.57142857 0 0 Z " fill="#231E2E" transform="translate(13,38)"/>
<path d="M0 0 C0.99 0.33 1.98 0.66 3 1 C3.33 3.31 3.66 5.62 4 8 C4 7.34 4 6.68 4 6 C4.99 6 5.98 6 7 6 C7 7.32 7 8.64 7 10 C7.66 10.33 8.32 10.66 9 11 C8.34 11 7.68 11 7 11 C7.99 13.97 8.98 16.94 10 20 C10.66 19.67 11.32 19.34 12 19 C11.79375 19.5775 11.5875 20.155 11.375 20.75 C10.91338739 23.51967567 11.57055055 24.64561267 13 27 C13.33 27 13.66 27 14 27 C13.9175 27.825 13.835 28.65 13.75 29.5 C14.07235989 34.01303847 15.79294651 37.11795056 18 41 C17.01 41.495 17.01 41.495 16 42 C13.89062368 40.42323368 11.78760742 38.83902921 9.6875 37.25 C8.79514648 36.58484375 8.79514648 36.58484375 7.88476562 35.90625 C4.75095327 33.5252529 2.16737326 31.34886555 0 28 C0.66 26.68 1.32 25.36 2 24 C1.67 24 1.34 24 1 24 C1.04125 22.9275 1.0825 21.855 1.125 20.75 C1.29767054 17.19616577 1.29767054 17.19616577 -0.03125 15.1875 C-1.41017609 12.07379591 -0.96099316 9.6099316 -0.625 6.25 C-0.51414062 5.07953125 -0.40328125 3.9090625 -0.2890625 2.703125 C-0.19367187 1.81109375 -0.09828125 0.9190625 0 0 Z " fill="#392A32" transform="translate(15,27)"/>
<path d="M0 0 C0 3.63 0 7.26 0 11 C-1.98 11.99 -1.98 11.99 -4 13 C-4.80528889 15.05000871 -4.80528889 15.05000871 -5 17 C-5.53625 17.061875 -6.0725 17.12375 -6.625 17.1875 C-10.11156962 18.38027382 -12.24940393 20.56197166 -15 23 C-15.66 22.67 -16.32 22.34 -17 22 C-16.67 21.34 -16.34 20.68 -16 20 C-16.99 20 -17.98 20 -19 20 C-19 18.35 -19 16.7 -19 15 C-18.34 15 -17.68 15 -17 15 C-17 12.69 -17 10.38 -17 8 C-12.545 8.99 -12.545 8.99 -8 10 C-7.34 8.02 -6.68 6.04 -6 4 C-6.66 3.67 -7.32 3.34 -8 3 C-2.25 0 -2.25 0 0 0 Z " fill="#3E2A35" transform="translate(58,38)"/>
<path d="M0 0 C0.33 0 0.66 0 1 0 C1 1.98 1 3.96 1 6 C2.65 5.34 4.3 4.68 6 4 C6 5.98 6 7.96 6 10 C7.98 9.67 9.96 9.34 12 9 C11.01 10.65 10.02 12.3 9 14 C10.32 14.66 11.64 15.32 13 16 C13 16.66 13 17.32 13 18 C11.68 18.33 10.36 18.66 9 19 C9.66 20.98 10.32 22.96 11 25 C3.4726477 21.04376368 3.4726477 21.04376368 1.5 16.6875 C1.335 15.800625 1.17 14.91375 1 14 C-1.31 13.67 -3.62 13.34 -6 13 C-4.38731308 10.28775382 -2.75098126 7.62647188 -1 5 C-0.61500109 3.34450469 -0.27206865 1.6777567 0 0 Z " fill="#C95D38" transform="translate(49,8)"/>
<path d="M0 0 C2.31 1.98 4.62 3.96 7 6 C5.13128286 13.47486857 -2.63179262 18.08110315 -9 22 C-9.66 21.67 -10.32 21.34 -11 21 C-10.34 19.989375 -9.68 18.97875 -9 17.9375 C-6.83478366 14.20725009 -6.74088256 11.31862398 -7 7 C-6.67 6.67 -6.34 6.34 -6 6 C-5.31731862 4.67479497 -4.6492959 3.34187818 -4 2 C-4 2.66 -4 3.32 -4 4 C-3.34 4 -2.68 4 -2 4 C-1.67 3.01 -1.34 2.02 -1 1 C-0.67 0.67 -0.34 0.34 0 0 Z " fill="#EC774C" transform="translate(58,47)"/>
<path d="M0 0 C0.66 0 1.32 0 2 0 C2 4.29 2 8.58 2 13 C2.33 13 2.66 13 3 13 C2.88140625 13.81984375 2.7628125 14.6396875 2.640625 15.484375 C2.51171875 16.56203125 2.3828125 17.6396875 2.25 18.75 C2.11078125 19.81734375 1.9715625 20.8846875 1.828125 21.984375 C1.71460154 25.08673761 1.71460154 25.08673761 3.796875 27.265625 C6.08333969 29.11248806 6.08333969 29.11248806 9 31 C8.67 31.66 8.34 32.32 8 33 C8.60328125 33.17015625 9.2065625 33.3403125 9.828125 33.515625 C14.51063372 34.93548248 17.85311149 36.03218406 21 40 C20.34 40.66 19.68 41.32 19 42 C13.70327334 39.64735962 10.03391741 37.251967 6 33 C4.7315625 32.38125 4.7315625 32.38125 3.4375 31.75 C-0.27478673 29.0847685 -1.66613658 25.29966029 -3 21 C-3 19.68 -3 18.36 -3 17 C-2.34 17 -1.68 17 -1 17 C-1.09539063 16.02417969 -1.19078125 15.04835938 -1.2890625 14.04296875 C-1.39992188 12.77066406 -1.51078125 11.49835937 -1.625 10.1875 C-1.74101562 8.92292969 -1.85703125 7.65835938 -1.9765625 6.35546875 C-2 3 -2 3 0 0 Z " fill="#AE413C" transform="translate(11,32)"/>
<path d="M0 0 C6.6 0 13.2 0 20 0 C20 2.31 20 4.62 20 7 C16.13276369 8.26582219 12.26848738 8.1118765 8.25 8.0625 C7.55261719 8.05798828 6.85523438 8.05347656 6.13671875 8.04882812 C4.42444197 8.0371002 2.71220967 8.01916653 1 8 C0 6 0 6 0 0 Z " fill="#8B8179" transform="translate(30,31)"/>
<path d="M0 0 C1.31602523 0.61754259 2.62773556 1.24428742 3.9375 1.875 C4.66839844 2.22304687 5.39929688 2.57109375 6.15234375 2.9296875 C8 4 8 4 9 6 C8.34 6 7.68 6 7 6 C6.938125 7.216875 6.87625 8.43375 6.8125 9.6875 C6.244862 14.21261421 4.60498443 16.13239875 1 19 C-0.63377642 20.05287814 -2.29181597 21.0727001 -4 22 C-3.34 20.02 -2.68 18.04 -2 16 C-3.32 15.67 -4.64 15.34 -6 15 C-6 14.34 -6 13.68 -6 13 C-4.68 12.34 -3.36 11.68 -2 11 C-2.99 9.35 -3.98 7.7 -5 6 C-2.03 6.495 -2.03 6.495 1 7 C0.67 4.69 0.34 2.38 0 0 Z " fill="#DF7D34" transform="translate(24,11)"/>
<path d="M0 0 C3.38780599 4.12428556 4 6.6751288 4 12 C4.66 12.33 5.32 12.66 6 13 C4.515 15.475 4.515 15.475 3 18 C11.39289075 26.40761142 11.39289075 26.40761142 22 31 C21.67 32.32 21.34 33.64 21 35 C20.13375 34.38125 19.2675 33.7625 18.375 33.125 C15.22507902 31.14171642 12.52428741 30.09644497 9 29 C8.01 28.34 7.02 27.68 6 27 C6 26.34 6 25.68 6 25 C5.01 24.34 4.02 23.68 3 23 C0.75 21.375 0.75 21.375 -1 19 C-1.04324223 16.17844458 -0.55897262 13.79486311 0 11 C-0.33 11 -0.66 11 -1 11 C-1.14285714 3.57142857 -1.14285714 3.57142857 0 0 Z " fill="#382832" transform="translate(13,38)"/>
<path d="M0 0 C1 2 2 4 3 6 C3.66 5.01 4.32 4.02 5 3 C6.32 3 7.64 3 9 3 C7.59113123 5.81773754 5.51646834 7.15868171 3 9 C2.34 9 1.68 9 1 9 C0.67 7.68 0.34 6.36 0 5 C-0.99 7.31 -1.98 9.62 -3 12 C-5.475 11.01 -5.475 11.01 -8 10 C-8 11.98 -8 13.96 -8 16 C-9.65 16 -11.3 16 -13 16 C-12.67 16.99 -12.34 17.98 -12 19 C-11.34 19.33 -10.68 19.66 -10 20 C-11.65 20.66 -13.3 21.32 -15 22 C-15 22.66 -15 23.32 -15 24 C-13.35 24 -11.7 24 -10 24 C-11.32 27.3 -12.64 30.6 -14 34 C-14.66 33.01 -15.32 32.02 -16 31 C-15.125 27.8125 -15.125 27.8125 -14 25 C-15.32 24.34 -16.64 23.68 -18 23 C-16.68 21.68 -15.36 20.36 -14 19 C-14.495 18.38125 -14.99 17.7625 -15.5 17.125 C-17 15 -17 15 -17 13 C-14.69 13.33 -12.38 13.66 -10 14 C-10 11.69 -10 9.38 -10 7 C-7.525 7.99 -7.525 7.99 -5 9 C-3.35 6.03 -1.7 3.06 0 0 Z " fill="#231E2B" transform="translate(33,2)"/>
<path d="M0 0 C2.64 0 5.28 0 8 0 C8.144375 0.7425 8.28875 1.485 8.4375 2.25 C8.89370276 4.8953825 8.89370276 4.8953825 9.75 6.875 C10.17031552 10.44768193 8.63904729 12.89146204 7 16 C5.3125 17.6875 5.3125 17.6875 3 19 C2.38640625 19.350625 1.7728125 19.70125 1.140625 20.0625 C-2.66868711 22.124684 -5.55241674 23.55594791 -10 23 C-10.33 23.99 -10.66 24.98 -11 26 C-11.66 25.34 -12.32 24.68 -13 24 C-9.37464179 20.82781157 -5.48849722 19.57097403 -1 18 C-1 17.01 -1 16.02 -1 15 C-0.1028125 14.5978125 -0.1028125 14.5978125 0.8125 14.1875 C3.1097636 12.94041405 4.52829405 12.16882981 6 10 C5.76716851 6.85078091 5.76716851 6.85078091 5 4 C4.01 4 3.02 4 2 4 C2 3.34 2 2.68 2 2 C1.34 2 0.68 2 0 2 C0 1.34 0 0.68 0 0 Z " fill="#6A3535" transform="translate(61,47)"/>
<path d="M0 0 C0.66 0 1.32 0 2 0 C0.63880608 4.08358176 -1.33192652 4.85452306 -5 7 C-6.99117408 7.69258229 -8.9921136 8.35747635 -11 9 C-12.36083164 9.71665098 -13.71471769 10.44659903 -15.0625 11.1875 C-17.60220514 12.47903886 -18.7316711 13.00638878 -21.625 12.9375 C-24.51808998 11.7954908 -27.25804091 10.46662928 -30 9 C-30 8.01 -30 7.02 -30 6 C-27.23723823 6.52268466 -24.6739124 7.10869587 -22 8 C-22 8.66 -22 9.32 -22 10 C-21.34 10 -20.68 10 -20 10 C-20 9.34 -20 8.68 -20 8 C-14.375 6 -14.375 6 -11 6 C-10.67 5.34 -10.34 4.68 -10 4 C-7.96875 3.18359375 -7.96875 3.18359375 -5.5 2.4375 C-2.48668507 1.67451663 -2.48668507 1.67451663 0 0 Z " fill="#412D32" transform="translate(61,66)"/>
<path d="M0 0 C0.99 0 1.98 0 3 0 C3.103125 1.216875 3.20625 2.43375 3.3125 3.6875 C3.75910452 7.46697408 5.01527316 9.75226517 7 13 C6.6875 15.3125 6.6875 15.3125 6 17 C2.76138697 15.55575365 0.38030837 13.74227753 -2.25 11.375 C-2.95640625 10.74335937 -3.6628125 10.11171875 -4.390625 9.4609375 C-4.92171875 8.97882812 -5.4528125 8.49671875 -6 8 C-2.25 2.25 -2.25 2.25 0 0 Z " fill="#ED754A" transform="translate(21,48)"/>
<path d="M0 0 C0.66 0.33 1.32 0.66 2 1 C2.33 1.99 2.66 2.98 3 4 C3.928125 3.01 3.928125 3.01 4.875 2 C7 0 7 0 9 0 C9.46733615 4.57989423 9.17261016 7.24854513 6.5 10.9375 C5.675 11.948125 4.85 12.95875 4 14 C1.5 12.875 1.5 12.875 -1 11 C-1.3125 7.8125 -1.3125 7.8125 -1 5 C-1.66 5 -2.32 5 -3 5 C-3.33 5.99 -3.66 6.98 -4 8 C-4.33 7.34 -4.66 6.68 -5 6 C-3.35 4.02 -1.7 2.04 0 0 Z " fill="#F19628" transform="translate(40,6)"/>
<path d="M0 0 C2.47957769 1.44642032 4.80227609 2.83317045 7 4.6875 C9.63491302 6.41666167 10.89286074 6.51785654 14 6 C17.27310553 4.09643013 17.27310553 4.09643013 20 2 C20 2.99 20 3.98 20 5 C17.89532233 7.07544604 16.49180584 7.91960866 13.5625 8.3984375 C12.716875 8.39070313 11.87125 8.38296875 11 8.375 C10.154375 8.38273437 9.30875 8.39046875 8.4375 8.3984375 C5.56634568 7.9291142 4.16558973 6.89489101 2 5 C3.36983503 8.16115776 3.9890638 8.9927092 7 11 C7.6875 14.125 7.6875 14.125 8 17 C8.66 17 9.32 17 10 17 C10 17.99 10 18.98 10 20 C8.68 19.67 7.36 19.34 6 19 C6 17.68 6 16.36 6 15 C5.01 14.67 4.02 14.34 3 14 C0.58403304 10.20348049 -1.1186186 6.45307783 -0.75 1.9375 C-0.5025 1.298125 -0.255 0.65875 0 0 Z " fill="#1C1A2B" transform="translate(29,54)"/>
<path d="M0 0 C1.231394 3.69418201 0.64432764 6.2056261 0 10 C0.99 9.34 1.98 8.68 3 8 C3.33 9.98 3.66 11.96 4 14 C5.98 13.34 7.96 12.68 10 12 C9.34 13.32 8.68 14.64 8 16 C4.7 16 1.4 16 -2 16 C-2.33 16.66 -2.66 17.32 -3 18 C-4.32 16.35 -5.64 14.7 -7 13 C-5.68 13.33 -4.36 13.66 -3 14 C-3.03480469 13.40832031 -3.06960937 12.81664062 -3.10546875 12.20703125 C-3.27563175 7.2398924 -3.16855209 4.09271311 0 0 Z " fill="#65353C" transform="translate(66,27)"/>
<path d="M0 0 C0.66 0 1.32 0 2 0 C2 4.29 2 8.58 2 13 C2.33 13 2.66 13 3 13 C2.67 16.3 2.34 19.6 2 23 C-0.475 22.01 -0.475 22.01 -3 21 C-3 19.68 -3 18.36 -3 17 C-2.34 17 -1.68 17 -1 17 C-1.09539063 16.02417969 -1.19078125 15.04835938 -1.2890625 14.04296875 C-1.39992188 12.77066406 -1.51078125 11.49835937 -1.625 10.1875 C-1.74101562 8.92292969 -1.85703125 7.65835938 -1.9765625 6.35546875 C-2 3 -2 3 0 0 Z " fill="#B4443B" transform="translate(11,32)"/>
<path d="M0 0 C1.15941038 3.47823115 0.70820884 5.45895578 0 9 C5.26883409 10.21434081 10.53305118 10.35607686 15.91796875 10.62109375 C19 11 19 11 21 13 C5.25512528 14.70159453 5.25512528 14.70159453 -2 11 C-2 10.34 -2 9.68 -2 9 C-2.66 9 -3.32 9 -4 9 C-4.33 7.35 -4.66 5.7 -5 4 C-3.35 2.68 -1.7 1.36 0 0 Z " fill="#201C2C" transform="translate(26,28)"/>
<path d="M0 0 C9.17286652 0.35010941 9.17286652 0.35010941 12.625 3.0625 C13.07875 3.701875 13.5325 4.34125 14 5 C12.35 5.66 10.7 6.32 9 7 C9 8.65 9 10.3 9 12 C8.01 11.67 7.02 11.34 6 11 C6 9.02 6 7.04 6 5 C4.02 5 2.04 5 0 5 C0 3.35 0 1.7 0 0 Z " fill="#28232F" transform="translate(63,42)"/>
<path d="M0 0 C1.32 0.33 2.64 0.66 4 1 C4 1.66 4 2.32 4 3 C4.99 3 5.98 3 7 3 C7.66 4.65 8.32 6.3 9 8 C10.98 8 12.96 8 15 8 C11.46102322 10.35931785 9.23312311 10.85146936 5 11 C2.625 9.5 2.625 9.5 1 7 C0.25 3.25 0.25 3.25 0 0 Z " fill="#A6745F" transform="translate(22,38)"/>
<path d="M0 0 C1.32 0 2.64 0 4 0 C4 0.66 4 1.32 4 2 C9.1693489 1.59443869 9.1693489 1.59443869 14 0 C13.67 2.31 13.34 4.62 13 7 C11.58318366 6.68817931 10.16655349 6.37551263 8.75 6.0625 C7.96109375 5.88847656 7.1721875 5.71445312 6.359375 5.53515625 C4.23121297 5.052444 2.11467158 4.53836822 0 4 C0 2.68 0 1.36 0 0 Z " fill="#D5956C" transform="translate(38,42)"/>
<path d="M0 0 C0.33 0.99 0.66 1.98 1 3 C0.34 3.66 -0.32 4.32 -1 5 C-0.34 5.33 0.32 5.66 1 6 C1.33868804 7.33198322 1.67118641 8.66554486 2 10 C3.16595656 11.94408607 3.16595656 11.94408607 4.5625 13.75 C5.01753906 14.36359375 5.47257812 14.9771875 5.94140625 15.609375 C6.29074219 16.06828125 6.64007813 16.5271875 7 17 C6.67 17.66 6.34 18.32 6 19 C-0.55400697 14.87340302 -0.55400697 14.87340302 -2.5 11.0625 C-3.0513315 7.68559459 -2.89867861 5.29515492 -2 2 C-1.34 1.34 -0.68 0.68 0 0 Z " fill="#D7762F" transform="translate(53,14)"/>
<path d="M0 0 C4.29 0.33 8.58 0.66 13 1 C11.02 1.99 11.02 1.99 9 3 C7.73195434 5.0335948 7.73195434 5.0335948 7 7 C5.00045254 7.04254356 2.99958364 7.04080783 1 7 C0.67 6.67 0.34 6.34 0 6 C0 4.02 0 2.04 0 0 Z " fill="#BDB199" transform="translate(30,31)"/>
<path d="M0 0 C1.17949219 0.11988281 2.35898437 0.23976563 3.57421875 0.36328125 C4.92966797 0.52376953 4.92966797 0.52376953 6.3125 0.6875 C6.3125 1.0175 6.3125 1.3475 6.3125 1.6875 C1.8575 2.1825 1.8575 2.1825 -2.6875 2.6875 C-2.6875 3.0175 -2.6875 3.3475 -2.6875 3.6875 C-4.3375 3.6875 -5.9875 3.6875 -7.6875 3.6875 C-7.3575 5.9975 -7.0275 8.3075 -6.6875 10.6875 C-7.6775 11.0175 -8.6675 11.3475 -9.6875 11.6875 C-10.6775 11.0275 -11.6675 10.3675 -12.6875 9.6875 C-12.6875 8.6975 -12.6875 7.7075 -12.6875 6.6875 C-12.0275 6.3575 -11.3675 6.0275 -10.6875 5.6875 C-10.3575 4.6975 -10.0275 3.7075 -9.6875 2.6875 C-7.0851404 -1.19383497 -4.34171807 -0.47286038 0 0 Z " fill="#422D35" transform="translate(37.6875,27.3125)"/>
<path d="M0 0 C3.85737779 2.5402244 7.60818586 5.15831933 11.2890625 7.94921875 C13.17239828 9.10587931 14.8426638 9.57135896 17 10 C16.67 11.32 16.34 12.64 16 14 C15.13375 13.38125 14.2675 12.7625 13.375 12.125 C10.22507902 10.14171642 7.52428741 9.09644497 4 8 C1 6 1 6 0.3125 2.875 C0.209375 1.92625 0.10625 0.9775 0 0 Z " fill="#332430" transform="translate(18,59)"/>
<path d="M0 0 C0.639375 0.495 1.27875 0.99 1.9375 1.5 C3.70974339 3.09802862 3.70974339 3.09802862 5 3 C4.9175 3.825 4.835 4.65 4.75 5.5 C5.07235989 10.01303847 6.79294651 13.11795056 9 17 C8.34 17.33 7.68 17.66 7 18 C5.35 16.35 3.7 14.7 2 13 C2.33 12.01 2.66 11.02 3 10 C2.525625 9.21625 2.05125 8.4325 1.5625 7.625 C-0.14700024 4.75303959 -0.28042368 3.27160958 0 0 Z " fill="#BB3740" transform="translate(24,51)"/>
<path d="M0 0 C0.928125 0.165 1.85625 0.33 2.8125 0.5 C7.85733621 1.23700282 12.91435711 1.08276815 18 1 C18 1.66 18 2.32 18 3 C15.03 2.505 15.03 2.505 12 2 C12 3.32 12 4.64 12 6 C9.69 6 7.38 6 5 6 C4.731875 5.195625 4.46375 4.39125 4.1875 3.5625 C3.795625 2.716875 3.40375 1.87125 3 1 C2.01 0.67 1.02 0.34 0 0 Z " fill="#994E3E" transform="translate(26,40)"/>
<path d="M0 0 C1.125 2.25 1.125 2.25 2 5 C1.125 7.3125 1.125 7.3125 0 9 C0 7.35 0 5.7 0 4 C-1.05960938 4.02320313 -2.11921875 4.04640625 -3.2109375 4.0703125 C-4.5989513 4.08906944 -5.9869727 4.10726972 -7.375 4.125 C-8.42300781 4.15013672 -8.42300781 4.15013672 -9.4921875 4.17578125 C-11.32897486 4.19344267 -13.16601963 4.10303261 -15 4 C-15.66 3.34 -16.32 2.68 -17 2 C-16.22914062 1.93941406 -15.45828125 1.87882812 -14.6640625 1.81640625 C-13.15972656 1.69072266 -13.15972656 1.69072266 -11.625 1.5625 C-10.62726562 1.48128906 -9.62953125 1.40007813 -8.6015625 1.31640625 C-5.21522585 0.9045545 -3.61528954 0 0 0 Z " fill="#402D3B" transform="translate(50,27)"/>
<path d="M0 0 C-0.99 1.32 -1.98 2.64 -3 4 C-1.68 4.66 -0.36 5.32 1 6 C1 6.66 1 7.32 1 8 C-0.65 8.66 -2.3 9.32 -4 10 C-6.0625 7.1875 -6.0625 7.1875 -8 4 C-7 1 -7 1 -4.5625 -0.25 C-2 -1 -2 -1 0 0 Z " fill="#E08430" transform="translate(61,18)"/>
<path d="M0 0 C-0.61023622 6.46850394 -0.61023622 6.46850394 -2.375 8.875 C-4 10 -4 10 -7 11 C-6.67 8.69 -6.34 6.38 -6 4 C-6.66 3.67 -7.32 3.34 -8 3 C-2.25 0 -2.25 0 0 0 Z " fill="#A84640" transform="translate(58,38)"/>
<path d="M0 0 C0.99 0 1.98 0 3 0 C3 0.99 3 1.98 3 3 C4.65 3.33 6.3 3.66 8 4 C6.125 7.875 6.125 7.875 5 9 C3.00041636 9.04080783 0.99954746 9.04254356 -1 9 C-1 8.34 -1 7.68 -1 7 C0.32 6.34 1.64 5.68 3 5 C2.01 3.35 1.02 1.7 0 0 Z " fill="#C76635" transform="translate(19,17)"/>
<path d="M0 0 C0.33 0.66 0.66 1.32 1 2 C5.16242267 3.79740979 7.65871823 4.16473413 12 3 C14.33177975 2.65596692 16.66487041 2.32050798 19 2 C17.32850504 5.34298992 14.39660753 5.81118736 11 7 C6.85298168 6.79770642 3.6255853 4.93926656 0 3 C0 2.01 0 1.02 0 0 Z " fill="#382B31" transform="translate(31,72)"/>
<path d="M0 0 C1.32 0.33 2.64 0.66 4 1 C-0.23255814 6.74418605 -0.23255814 6.74418605 -4 8 C-6.75 8.125 -6.75 8.125 -9 8 C-9.33 8.99 -9.66 9.98 -10 11 C-10.66 10.34 -11.32 9.68 -12 9 C-8.37464179 5.82781157 -4.48849722 4.57097403 0 3 C0 2.01 0 1.02 0 0 Z " fill="#C5493B" transform="translate(60,62)"/>
<path d="M0 0 C0.33 0 0.66 0 1 0 C1.99 5.61 2.98 11.22 4 17 C3.34 17 2.68 17 2 17 C1.67 17.66 1.34 18.32 1 19 C1.04125 17.9275 1.0825 16.855 1.125 15.75 C1.00436885 12.13106549 0.57039966 11.04264934 -1 8 C-1.32142857 2.64285714 -1.32142857 2.64285714 0 0 Z " fill="#D5463E" transform="translate(15,32)"/>
<path d="M0 0 C2.64 0 5.28 0 8 0 C8.125 2.875 8.125 2.875 8 6 C7.34 6.66 6.68 7.32 6 8 C5.34 6.68 4.68 5.36 4 4 C3.34 4 2.68 4 2 4 C2 3.34 2 2.68 2 2 C1.34 2 0.68 2 0 2 C0 1.34 0 0.68 0 0 Z " fill="#A24139" transform="translate(61,47)"/>
<path d="M0 0 C1.98 0.99 1.98 0.99 4 2 C4 2.66 4 3.32 4 4 C5.98 4 7.96 4 10 4 C6.55549263 6.29633824 4.06187717 6.54016485 0 7 C0 4.69 0 2.38 0 0 Z " fill="#F1BF95" transform="translate(27,42)"/>
<path d="M0 0 C1.98 0.66 3.96 1.32 6 2 C5.65986985 7.44208234 2.29703472 10.93668198 -1 15 C-1.33 14.34 -1.66 13.68 -2 13 C1 8.5 1 8.5 4 4 C3.67 3.34 3.34 2.68 3 2 C2.01 2 1.02 2 0 2 C0 1.34 0 0.68 0 0 Z " fill="#EA8D2D" transform="translate(22,18)"/>
<path d="M0 0 C2.12182819 2.58309518 3.68297532 4.61840345 4 8 C3.0625 10.25 3.0625 10.25 2 12 C1.67 11.34 1.34 10.68 1 10 C0.01 10.495 0.01 10.495 -1 11 C-1.14285714 3.57142857 -1.14285714 3.57142857 0 0 Z " fill="#452E33" transform="translate(13,38)"/>
<path d="M0 0 C2.38564077 0.57584432 4.66682784 1.22227595 7 2 C7 2.66 7 3.32 7 4 C7.66 4 8.32 4 9 4 C9 3.34 9 2.68 9 2 C10.98 1.34 12.96 0.68 15 0 C15.33 0.66 15.66 1.32 16 2 C12.72694063 3.94824962 10.72845385 5.04370723 6.875 4.8125 C4.35508761 4.10035085 2.26106503 3.3044606 0 2 C0 1.34 0 0.68 0 0 Z " fill="#A64A38" transform="translate(32,72)"/>
<path d="M0 0 C0.33 0.66 0.66 1.32 1 2 C1.66 2 2.32 2 3 2 C3.41176754 5.60296594 3.1535853 6.78402067 1 9.8125 C0.34 10.534375 -0.32 11.25625 -1 12 C-1.38063221 9.6739143 -1.71269945 7.33944736 -2 5 C-1.67 4.67 -1.34 4.34 -1 4 C-0.63837971 2.67405895 -0.30271961 1.34061543 0 0 Z " fill="#C7333E" transform="translate(53,49)"/>
<path d="M0 0 C1.24025174 3.72075523 0.60677844 6.15706991 0 10 C0 11.32 0 12.64 0 14 C-0.99 14 -1.98 14 -3 14 C-3.32374517 8.49633208 -3.53286034 4.56327794 0 0 Z " fill="#DC4042" transform="translate(66,27)"/>
<path d="M0 0 C0.93423645 3.01031744 1.04449911 3.86650268 0 7 C-0.66 6.67 -1.32 6.34 -2 6 C-2.33 6.66 -2.66 7.32 -3 8 C-3.66 5.69 -4.32 3.38 -5 1 C-3.35 0.67 -1.7 0.34 0 0 Z " fill="#7D5A55" transform="translate(30,48)"/>
<path d="M0 0 C1.65 0 3.3 0 5 0 C5 2.97 5 5.94 5 9 C4.34 9 3.68 9 3 9 C3 7.35 3 5.7 3 4 C2.34 4 1.68 4 1 4 C0.67 2.68 0.34 1.36 0 0 Z " fill="#3F3943" transform="translate(36,67)"/>
<path d="M0 0 C2.3125 1.25 2.3125 1.25 3.3125 3.25 C2.6525 3.91 1.9925 4.57 1.3125 5.25 C-1.3275 3.93 -3.9675 2.61 -6.6875 1.25 C-2.6875 -0.75 -2.6875 -0.75 0 0 Z " fill="#A14539" transform="translate(28.6875,68.75)"/>
<path d="M0 0 C4.29 0.33 8.58 0.66 13 1 C13 1.33 13 1.66 13 2 C8.545 2.495 8.545 2.495 4 3 C4 3.33 4 3.66 4 4 C2.02 4.33 0.04 4.66 -2 5 C-1.34 3.35 -0.68 1.7 0 0 Z " fill="#311B2D" transform="translate(31,27)"/>
<path d="M0 0 C3.465 1.98 3.465 1.98 7 4 C6.67 5.32 6.34 6.64 6 8 C1.3125 4.38671875 1.3125 4.38671875 0 3 C0 2.01 0 1.02 0 0 Z " fill="#36303C" transform="translate(30,58)"/>
<path d="M0 0 C0.33 0 0.66 0 1 0 C0.67 2.31 0.34 4.62 0 7 C-2.3431213 6.74438677 -4.67843403 6.40729228 -7 6 C-7.33 5.34 -7.66 4.68 -8 4 C-7.05125 3.896875 -6.1025 3.79375 -5.125 3.6875 C-1.70892499 3.31460705 -1.70892499 3.31460705 0 0 Z " fill="#EAAC89" transform="translate(51,42)"/>
<path d="M0 0 C0.66 0 1.32 0 2 0 C2.33 1.32 2.66 2.64 3 4 C5.31 4 7.62 4 10 4 C9.67 4.99 9.34 5.98 9 7 C6.36 7 3.72 7 1 7 C0.67 4.69 0.34 2.38 0 0 Z " fill="#2C222B" transform="translate(54,11)"/>
<path d="M0 0 C0.99 0.495 0.99 0.495 2 1 C2.99 0.67 3.98 0.34 5 0 C5 1.98 5 3.96 5 6 C3.02 6.99 3.02 6.99 1 8 C0.67 5.36 0.34 2.72 0 0 Z " fill="#C05A37" transform="translate(34,11)"/>
<path d="M0 0 C0.66 0.66 1.32 1.32 2 2 C1.9375 4 1.9375 4 1 6 C-1.5625 7.25 -1.5625 7.25 -4 8 C-1.125 1.125 -1.125 1.125 0 0 Z " fill="#AE3C40" transform="translate(51,61)"/>
<path d="M0 0 C0.99 0.33 1.98 0.66 3 1 C0.25 7.75 0.25 7.75 -2 10 C-3.06351675 6.61608307 -3.21442982 5.4195366 -1.5625 2.1875 C-1.046875 1.465625 -0.53125 0.74375 0 0 Z " fill="#2B232F" transform="translate(20,26)"/>
<path d="M0 0 C0.66 0 1.32 0 2 0 C1.63076923 7.26153846 1.63076923 7.26153846 -1.5625 11 C-2.366875 11.66 -3.17125 12.32 -4 13 C-4 10 -4 10 -2 7 C-1.34 7 -0.68 7 0 7 C0 4.69 0 2.38 0 0 Z " fill="#93423C" transform="translate(29,17)"/>
<path d="M0 0 C2 1 2 1 4 4 C4 4.99 4 5.98 4 7 C2.35 7.33 0.7 7.66 -1 8 C-0.67 7.34 -0.34 6.68 0 6 C0.039992 4.00039988 0.04346799 1.99952758 0 0 Z " fill="#5E2F35" transform="translate(18,42)"/>
<path d="M0 0 C2.0625 0.4375 2.0625 0.4375 4 1 C3.34 2.32 2.68 3.64 2 5 C0.68 5 -0.64 5 -2 5 C-1.125 1.125 -1.125 1.125 0 0 Z " fill="#645F5E" transform="translate(39,33)"/>
<path d="M0 0 C1.32 0.66 2.64 1.32 4 2 C3.34 2 2.68 2 2 2 C1.67 2.99 1.34 3.98 1 5 C0.34 5 -0.32 5 -1 5 C-1.33 6.32 -1.66 7.64 -2 9 C-3 6 -3 6 -1.5625 2.8125 C-1.046875 1.884375 -0.53125 0.95625 0 0 Z " fill="#DD7531" transform="translate(29,25)"/>
<path d="M0 0 C0.66 0 1.32 0 2 0 C0.52307692 5.66153846 0.52307692 5.66153846 -2.125 7.375 C-3.053125 7.684375 -3.053125 7.684375 -4 8 C-2.25 2.25 -2.25 2.25 0 0 Z " fill="#1C1829" transform="translate(48,62)"/>
<path d="M0 0 C2.97 1.65 5.94 3.3 9 5 C9 5.33 9 5.66 9 6 C6.69 5.67 4.38 5.34 2 5 C1.34 3.35 0.68 1.7 0 0 Z " fill="#DC473F" transform="translate(17,63)"/>
<path d="M0 0 C0.33 0 0.66 0 1 0 C1.33 2.97 1.66 5.94 2 9 C0.68 8.34 -0.64 7.68 -2 7 C-2 5.68 -2 4.36 -2 3 C-1.34 3 -0.68 3 0 3 C0 2.01 0 1.02 0 0 Z " fill="#542F35" transform="translate(10,46)"/>
<path d="M0 0 C-0.33 0.99 -0.66 1.98 -1 3 C-2.65 2.67 -4.3 2.34 -6 2 C-6.33 2.66 -6.66 3.32 -7 4 C-7.66 3.34 -8.32 2.68 -9 2 C-8.34 2 -7.68 2 -7 2 C-7 1.34 -7 0.68 -7 0 C-2.25 -1.125 -2.25 -1.125 0 0 Z " fill="#732E31" transform="translate(51,41)"/>
<path d="M0 0 C0.66 0 1.32 0 2 0 C2 1.65 2 3.3 2 5 C1.67 5 1.34 5 1 5 C0.67 6.98 0.34 8.96 0 11 C-0.33 11 -0.66 11 -1 11 C-2.25 3.375 -2.25 3.375 0 0 Z " fill="#362C32" transform="translate(11,32)"/>
<path d="M0 0 C-0.639375 0.268125 -1.27875 0.53625 -1.9375 0.8125 C-4.33131686 1.88667752 -4.33131686 1.88667752 -5 5 C-5.99 5.33 -6.98 5.66 -8 6 C-7.67 4.02 -7.34 2.04 -7 0 C-2.25 -1.125 -2.25 -1.125 0 0 Z " fill="#472B33" transform="translate(65,61)"/>
<path d="M0 0 C1.11375 0.495 1.11375 0.495 2.25 1 C5.13883312 2.22782871 5.13883312 2.22782871 9 2 C9 2.66 9 3.32 9 4 C7.35 4.66 5.7 5.32 4 6 C2.68 4.02 1.36 2.04 0 0 Z " fill="#9D4139" transform="translate(53,22)"/>
<path d="M0 0 C0.99 0 1.98 0 3 0 C3 1.32 3 2.64 3 4 C1.35 4 -0.3 4 -2 4 C-1.34 2.68 -0.68 1.36 0 0 Z " fill="#2A2634" transform="translate(41,62)"/>
</svg>
